<svg id="Layer_3" enable-background="new 0 0 64 64" height="512" viewBox="0 0 64 64" width="512" xmlns="http://www.w3.org/2000/svg">
    <g>
        <path
            d="m60 15h-7v-1c0-1.654-1.346-3-3-3h-19c-1.654 0-3 1.346-3 3v4h-.465l-1.703-2.555c-.186-.278-.498-.445-.832-.445h-21c-1.654 0-3 1.346-3 3v26c0 1.654 1.346 3 3 3h7v5c0 .552.447 1 1 1h32c.553 0 1-.448 1-1v-5h15c1.654 0 3-1.346 3-3v-26c0-1.654-1.346-3-3-3zm-30-1c0-.551.448-1 1-1h19c.552 0 1 .449 1 1v1h-12c-.334 0-.646.167-.832.445l-1.703 2.555h-6.465zm13 37h-30v-4h2v2h2v-2h2v2h2v-2h2v2h2v-2h2v2h2v-2h2v2h2v-2h2v2h2v-2h2v2h2v-2h2zm18-7c0 .551-.448 1-1 1h-56c-.552 0-1-.449-1-1v-26c0-.551.448-1 1-1h20.465l1.703 2.555c.186.278.498.445.832.445h10c.334 0 .646-.167.832-.445l1.703-2.555h20.465c.552 0 1 .449 1 1z"
            fill="#ffefcf"/>
        <path
            d="m17 19c-6.617 0-12 5.383-12 12s5.383 12 12 12 12-5.383 12-12-5.383-12-12-12zm0 11c.552 0 1 .449 1 1s-.448 1-1 1-1-.449-1-1 .448-1 1-1zm.523-1.947c-.019-.003-.04-.003-.059-.006-.944-.95-1.464-2.208-1.464-3.547 0-1.31.504-2.537 1.408-3.479 1.803.073 3.481.622 4.917 1.53-1.063.336-2.039.921-2.85 1.732-1.041 1.04-1.708 2.349-1.952 3.77zm-2.238.492c-.017.012-.031.027-.047.039-1.338-.005-2.595-.527-3.542-1.473-.925-.925-1.436-2.148-1.464-3.451 1.265-1.167 2.826-2.013 4.561-2.406-.516.99-.793 2.096-.793 3.246 0 1.47.453 2.869 1.285 4.045zm-5.003-.02c1.04 1.04 2.35 1.708 3.771 1.952-.003.019-.003.04-.006.06-.95.942-2.208 1.463-3.547 1.463-1.309 0-2.537-.504-3.479-1.408.073-1.803.622-3.481 1.53-4.916.335 1.063.92 2.038 1.731 2.849zm6.195 5.422c.019.003.04.003.059.006.944.95 1.464 2.208 1.464 3.547 0 1.31-.504 2.537-1.408 3.479-1.803-.073-3.481-.622-4.917-1.53 1.063-.336 2.039-.921 2.85-1.732 1.041-1.04 1.708-2.349 1.952-3.77zm2.238-.492c.017-.012.031-.027.047-.039 1.338.005 2.595.527 3.542 1.473.925.925 1.436 2.148 1.464 3.451-1.265 1.167-2.826 2.013-4.561 2.406.516-.99.793-2.096.793-3.246 0-1.47-.453-2.869-1.285-4.045zm5.003.02c-1.04-1.04-2.35-1.708-3.771-1.952.003-.019.003-.04.006-.06.95-.942 2.208-1.463 3.547-1.463 1.309 0 2.537.504 3.479 1.408-.073 1.803-.622 3.481-1.53 4.916-.335-1.063-.92-2.038-1.731-2.849zm-.218-5.475c-1.47 0-2.868.454-4.045 1.285-.012-.017-.027-.031-.039-.047.005-1.338.526-2.594 1.473-3.541.925-.925 2.148-1.436 3.452-1.464 1.167 1.265 2.013 2.826 2.406 4.561-.991-.517-2.098-.794-3.247-.794zm-16.247 5.206c.991.517 2.098.794 3.247.794 1.47 0 2.868-.454 4.045-1.285.012.017.027.031.039.047-.005 1.338-.526 2.594-1.473 3.541-.925.925-2.148 1.436-3.452 1.464-1.167-1.264-2.013-2.825-2.406-4.561z"
            fill="#ffefcf"/>
        <path
            d="m47 19c-6.617 0-12 5.383-12 12s5.383 12 12 12 12-5.383 12-12-5.383-12-12-12zm0 11c.552 0 1 .449 1 1s-.448 1-1 1-1-.449-1-1 .448-1 1-1zm.523-1.947c-.019-.003-.04-.003-.059-.006-.944-.95-1.464-2.208-1.464-3.547 0-1.31.504-2.537 1.408-3.479 1.803.073 3.481.622 4.917 1.53-1.063.336-2.039.921-2.85 1.732-1.041 1.04-1.708 2.349-1.952 3.77zm-2.238.492c-.017.012-.031.027-.047.039-1.338-.005-2.595-.527-3.542-1.473-.925-.925-1.436-2.148-1.464-3.451 1.265-1.167 2.826-2.013 4.561-2.406-.516.99-.793 2.096-.793 3.246 0 1.47.453 2.869 1.285 4.045zm-5.003-.02c1.04 1.04 2.35 1.708 3.771 1.952-.003.019-.003.04-.006.06-.95.942-2.208 1.463-3.547 1.463-1.309 0-2.537-.504-3.479-1.408.073-1.803.622-3.481 1.53-4.916.335 1.063.92 2.038 1.731 2.849zm6.195 5.422c.019.003.04.003.059.006.944.95 1.464 2.208 1.464 3.547 0 1.31-.504 2.537-1.408 3.479-1.803-.073-3.481-.622-4.917-1.53 1.063-.336 2.039-.921 2.85-1.732 1.041-1.04 1.708-2.349 1.952-3.77zm2.238-.492c.017-.012.031-.027.047-.039 1.338.005 2.595.527 3.542 1.473.925.925 1.436 2.148 1.464 3.451-1.265 1.167-2.826 2.013-4.561 2.406.516-.99.793-2.096.793-3.246 0-1.47-.453-2.869-1.285-4.045zm5.003.02c-1.04-1.04-2.35-1.708-3.771-1.952.003-.019.003-.04.006-.06.95-.942 2.208-1.463 3.547-1.463 1.309 0 2.537.504 3.479 1.408-.073 1.803-.622 3.481-1.53 4.916-.335-1.063-.92-2.038-1.731-2.849zm-.218-5.475c-1.47 0-2.868.454-4.045 1.285-.012-.017-.027-.031-.039-.047.005-1.338.526-2.594 1.473-3.541.925-.925 2.148-1.436 3.452-1.464 1.167 1.265 2.013 2.826 2.406 4.561-.991-.517-2.098-.794-3.247-.794zm-16.247 5.206c.991.517 2.098.794 3.247.794 1.47 0 2.868-.454 4.045-1.285.012.017.027.031.039.047-.005 1.338-.526 2.594-1.473 3.541-.925.925-2.148 1.436-3.452 1.464-1.167-1.264-2.013-2.825-2.406-4.561z"
            fill="#ffefcf"/>
        <path d="m5 19h2v2h-2z" fill="#ffefcf"/>
        <path d="m5 41h2v2h-2z" fill="#ffefcf"/>
        <path d="m57 19h2v2h-2z" fill="#ffefcf"/>
        <path d="m57 41h2v2h-2z" fill="#ffefcf"/>
    </g>
</svg>
