<svg id="Layer_1" enable-background="new 0 0 512 512" height="512" viewBox="0 0 512 512" width="512" xmlns="http://www.w3.org/2000/svg">
    <path
        d="m496 0h-480c-8.836 0-16 7.164-16 16v480c0 8.836 7.164 16 16 16h480c8.837 0 16-7.164 16-16v-480c0-8.836-7.163-16-16-16zm-16 480h-448v-16h16c8.836 0 16-7.164 16-16s-7.164-16-16-16h-16v-16h16c8.836 0 16-7.164 16-16s-7.164-16-16-16h-16v-16h16c8.836 0 16-7.164 16-16s-7.164-16-16-16h-16v-16h16c8.836 0 16-7.164 16-16s-7.164-16-16-16h-16v-160h16c8.836 0 16-7.164 16-16s-7.164-16-16-16h-16v-16h16c8.836 0 16-7.164 16-16s-7.164-16-16-16h-16v-16h448z"
        fill="#ffefcf"/>
    <path
        d="m240 192c-8.836 0-16 7.164-16 16s7.164 16 16 16h18.752c4.829 13.615 15.633 24.419 29.248 29.248v18.752c0 8.836 7.163 16 16 16s16-7.164 16-16v-16h32v16c0 8.836 7.163 16 16 16s16-7.164 16-16v-18.752c13.615-4.829 24.419-15.633 29.248-29.248h18.752c8.837 0 16-7.164 16-16s-7.163-16-16-16h-16v-31h16c8.837 0 16-7.164 16-16s-7.163-16-16-16h-18.413c-4.646-14.084-15.641-25.301-29.587-30.248v-18.752c0-8.836-7.163-16-16-16s-16 7.164-16 16v16h-32v-16c0-8.836-7.163-16-16-16s-16 7.164-16 16v18.752c-13.946 4.946-24.94 16.164-29.587 30.248h-18.413c-8.836 0-16 7.164-16 16s7.164 16 16 16h16v31zm48-48c0-8.822 7.178-16 16-16h64c8.822 0 16 7.178 16 16v64c0 8.822-7.178 16-16 16h-64c-8.822 0-16-7.178-16-16z"
        fill="#ffefcf"/>
    <path d="m240 352h192c8.837 0 16-7.164 16-16s-7.163-16-16-16h-192c-8.836 0-16 7.164-16 16s7.164 16 16 16z" fill="#ffefcf"/>
    <path d="m240 416h16v16c0 8.836 7.163 16 16 16s16-7.164 16-16v-16h32v16c0 8.836 7.163 16 16 16s16-7.164 16-16v-16h32v16c0 8.836 7.163 16 16 16s16-7.164 16-16v-16h16c8.837 0 16-7.164 16-16s-7.163-16-16-16h-192c-8.836 0-16 7.164-16 16s7.164 16 16 16z" fill="#ffefcf"/>
    <path d="m112 208c8.836 0 16-7.164 16-16v-112c0-8.836-7.164-16-16-16s-16 7.164-16 16v112c0 8.836 7.164 16 16 16z" fill="#ffefcf"/>
    <path d="m176 272c8.836 0 16-7.164 16-16v-176c0-8.836-7.164-16-16-16s-16 7.164-16 16v176c0 8.836 7.164 16 16 16z" fill="#ffefcf"/>
    <path d="m112 448h32c8.836 0 16-7.164 16-16s-7.164-16-16-16h-32c-8.836 0-16 7.164-16 16s7.164 16 16 16z" fill="#ffefcf"/>
    <path d="m112 384h32c8.836 0 16-7.164 16-16s-7.164-16-16-16h-32c-8.836 0-16 7.164-16 16s7.164 16 16 16z" fill="#ffefcf"/>
    <path d="m112 320h32c8.836 0 16-7.164 16-16s-7.164-16-16-16h-32c-8.836 0-16 7.164-16 16s7.164 16 16 16z" fill="#ffefcf"/>
</svg>
